// Generation Options: --volume 10

<group>
sw_default=48
sw_lokey=48
sw_hikey=53
sw_last=48
sw_label=Normal
trigger=attack
ampeg_attack=0.004000
ampeg_release=0.100000

<region>
sample=Harmonica-Hohner-Special20-F/Sustains/Normal/Hohner-Special20-F_Normal_F3.wav
pitch_keycenter=65
lokey=65
hikey=67
volume=8.065204

<region>
sample=Harmonica-Hohner-Special20-F/Sustains/Normal/Hohner-Special20-F_Normal_A3.wav
pitch_keycenter=69
lokey=68
hikey=70
volume=11.586160

<region>
sample=Harmonica-Hohner-Special20-F/Sustains/Normal/Hohner-Special20-F_Normal_C4.wav
pitch_keycenter=72
lokey=71
hikey=74
volume=10.920034

<region>
sample=Harmonica-Hohner-Special20-F/Sustains/Normal/Hohner-Special20-F_Normal_F4.wav
pitch_keycenter=77
lokey=75
hikey=79
tune=-1
volume=8.521141

<region>
sample=Harmonica-Hohner-Special20-F/Sustains/Normal/Hohner-Special20-F_Normal_A4.wav
pitch_keycenter=81
lokey=80
hikey=82
volume=11.753415

<region>
sample=Harmonica-Hohner-Special20-F/Sustains/Normal/Hohner-Special20-F_Normal_C5.wav
pitch_keycenter=84
lokey=83
hikey=86
volume=14.824080

<region>
sample=Harmonica-Hohner-Special20-F/Sustains/Normal/Hohner-Special20-F_Normal_F5.wav
pitch_keycenter=89
lokey=87
hikey=92
volume=9.437299

<region>
sample=Harmonica-Hohner-Special20-F/Sustains/Normal/Hohner-Special20-F_Normal_C6.wav
pitch_keycenter=96
lokey=93
hikey=97
tune=-1
volume=5.892811

<group>
sw_default=48
sw_lokey=48
sw_hikey=53
sw_last=48
sw_label=Normal
trigger=release
ampeg_attack=0.100000

<region>
sample=Harmonica-Hohner-Special20-F/Releases/Normal/Hohner-Special20-F_Normal_rel_F3.wav
pitch_keycenter=65
lokey=65
hikey=67
tune=-10
volume=6.337663

<region>
sample=Harmonica-Hohner-Special20-F/Releases/Normal/Hohner-Special20-F_Normal_rel_A3.wav
pitch_keycenter=69
lokey=68
hikey=70
tune=-1
volume=-6.490250

<region>
sample=Harmonica-Hohner-Special20-F/Releases/Normal/Hohner-Special20-F_Normal_rel_C4.wav
pitch_keycenter=72
lokey=71
hikey=74
tune=-3
volume=0.586998

<region>
sample=Harmonica-Hohner-Special20-F/Releases/Normal/Hohner-Special20-F_Normal_rel_F4.wav
pitch_keycenter=77
lokey=75
hikey=79
tune=-4
volume=7.320181

<region>
sample=Harmonica-Hohner-Special20-F/Releases/Normal/Hohner-Special20-F_Normal_rel_A4.wav
pitch_keycenter=81
lokey=80
hikey=82
tune=-1
volume=-0.954863

<region>
sample=Harmonica-Hohner-Special20-F/Releases/Normal/Hohner-Special20-F_Normal_rel_C5.wav
pitch_keycenter=84
lokey=83
hikey=86
tune=-4
volume=4.241851

<region>
sample=Harmonica-Hohner-Special20-F/Releases/Normal/Hohner-Special20-F_Normal_rel_F5.wav
pitch_keycenter=89
lokey=87
hikey=92
tune=-1
volume=0.845482

<region>
sample=Harmonica-Hohner-Special20-F/Releases/Normal/Hohner-Special20-F_Normal_rel_C6.wav
pitch_keycenter=96
lokey=93
hikey=97
volume=-4.367148



// Generation Options: --volume 5 --attack 0.1 --articulation Vib

<group>
sw_default=48
sw_lokey=48
sw_hikey=53
sw_last=49
sw_label=Vib
trigger=attack
ampeg_attack=0.100000
ampeg_release=0.100000

<region>
sample=Harmonica-Hohner-Special20-F/Sustains/Vib/Hohner-Special20-F_Vib_F3.wav
pitch_keycenter=65
lokey=65
hikey=67
volume=4.280755

<region>
sample=Harmonica-Hohner-Special20-F/Sustains/Vib/Hohner-Special20-F_Vib_A3.wav
pitch_keycenter=69
lokey=68
hikey=70
volume=6.180978

<region>
sample=Harmonica-Hohner-Special20-F/Sustains/Vib/Hohner-Special20-F_Vib_C4.wav
pitch_keycenter=72
lokey=71
hikey=74
volume=5.792669

<region>
sample=Harmonica-Hohner-Special20-F/Sustains/Vib/Hohner-Special20-F_Vib_F4.wav
pitch_keycenter=77
lokey=75
hikey=79
tune=-1
volume=4.020936

<region>
sample=Harmonica-Hohner-Special20-F/Sustains/Vib/Hohner-Special20-F_Vib_A4.wav
pitch_keycenter=81
lokey=80
hikey=82
volume=4.176106

<region>
sample=Harmonica-Hohner-Special20-F/Sustains/Vib/Hohner-Special20-F_Vib_C5.wav
pitch_keycenter=84
lokey=83
hikey=86
volume=10.141761

<region>
sample=Harmonica-Hohner-Special20-F/Sustains/Vib/Hohner-Special20-F_Vib_F5.wav
pitch_keycenter=89
lokey=87
hikey=91
volume=2.029961

<region>
sample=Harmonica-Hohner-Special20-F/Sustains/Vib/Hohner-Special20-F_Vib_A5.wav
pitch_keycenter=93
lokey=92
hikey=97
tune=-1
volume=4.939608

<region>
sample=Harmonica-Hohner-Special20-F/Sustains/Vib/Hohner-Special20-F_Vib_F6.wav
pitch_keycenter=101
lokey=98
hikey=102
volume=5.738648

<group>
sw_default=48
sw_lokey=48
sw_hikey=53
sw_last=49
sw_label=Vib
trigger=release
ampeg_attack=0.100000

<region>
sample=Harmonica-Hohner-Special20-F/Releases/Vib/Hohner-Special20-F_Vib_rel_F3.wav
pitch_keycenter=65
lokey=65
hikey=67
tune=-2
volume=-3.335599

<region>
sample=Harmonica-Hohner-Special20-F/Releases/Vib/Hohner-Special20-F_Vib_rel_A3.wav
pitch_keycenter=69
lokey=68
hikey=70
tune=-3
volume=-0.934384

<region>
sample=Harmonica-Hohner-Special20-F/Releases/Vib/Hohner-Special20-F_Vib_rel_C4.wav
pitch_keycenter=72
lokey=71
hikey=74
tune=-7
volume=6.366360

<region>
sample=Harmonica-Hohner-Special20-F/Releases/Vib/Hohner-Special20-F_Vib_rel_F4.wav
pitch_keycenter=77
lokey=75
hikey=79
tune=-2
volume=-0.735863

<region>
sample=Harmonica-Hohner-Special20-F/Releases/Vib/Hohner-Special20-F_Vib_rel_A4.wav
pitch_keycenter=81
lokey=80
hikey=82
volume=4.464600

<region>
sample=Harmonica-Hohner-Special20-F/Releases/Vib/Hohner-Special20-F_Vib_rel_C5.wav
pitch_keycenter=84
lokey=83
hikey=86
tune=-5
volume=4.678568

<region>
sample=Harmonica-Hohner-Special20-F/Releases/Vib/Hohner-Special20-F_Vib_rel_F5.wav
pitch_keycenter=89
lokey=87
hikey=91
volume=-9.624575

<region>
sample=Harmonica-Hohner-Special20-F/Releases/Vib/Hohner-Special20-F_Vib_rel_A5.wav
pitch_keycenter=93
lokey=92
hikey=97
tune=-2
volume=8.321338

<region>
sample=Harmonica-Hohner-Special20-F/Releases/Vib/Hohner-Special20-F_Vib_rel_F6.wav
pitch_keycenter=101
lokey=98
hikey=102
tune=-1
volume=12.793746



// Generation Options: --volume 10

<group>
sw_default=48
sw_lokey=48
sw_hikey=53
sw_last=50
sw_label=HandVib
trigger=attack
ampeg_attack=0.004000
ampeg_release=0.100000

<region>
sample=Harmonica-Hohner-Special20-F/Sustains/HandVib/Hohner-Special20-F_HandVib_F3.wav
pitch_keycenter=65
lokey=65
hikey=67
volume=6.983731

<region>
sample=Harmonica-Hohner-Special20-F/Sustains/HandVib/Hohner-Special20-F_HandVib_A3.wav
pitch_keycenter=69
lokey=68
hikey=70
volume=11.233406
ampeg_attack=0.1

<region>
sample=Harmonica-Hohner-Special20-F/Sustains/HandVib/Hohner-Special20-F_HandVib_C4.wav
pitch_keycenter=72
lokey=71
hikey=74
volume=13.674840
ampeg_attack=0.1

<region>
sample=Harmonica-Hohner-Special20-F/Sustains/HandVib/Hohner-Special20-F_HandVib_F4.wav
pitch_keycenter=77
lokey=75
hikey=79
volume=7.858103

<region>
sample=Harmonica-Hohner-Special20-F/Sustains/HandVib/Hohner-Special20-F_HandVib_A4.wav
pitch_keycenter=81
lokey=80
hikey=82
volume=14.108568

<region>
sample=Harmonica-Hohner-Special20-F/Sustains/HandVib/Hohner-Special20-F_HandVib_C5.wav
pitch_keycenter=84
lokey=83
hikey=86
volume=16.506399

<region>
sample=Harmonica-Hohner-Special20-F/Sustains/HandVib/Hohner-Special20-F_HandVib_F5.wav
pitch_keycenter=89
lokey=87
hikey=91
volume=8.598776

<region>
sample=Harmonica-Hohner-Special20-F/Sustains/HandVib/Hohner-Special20-F_HandVib_A5.wav
pitch_keycenter=93
lokey=92
hikey=94
volume=13.976601

<region>
sample=Harmonica-Hohner-Special20-F/Sustains/HandVib/Hohner-Special20-F_HandVib_C6.wav
pitch_keycenter=96
lokey=95
hikey=98
offset=782
volume=4.614296

<region>
sample=Harmonica-Hohner-Special20-F/Sustains/HandVib/Hohner-Special20-F_HandVib_F6.wav
pitch_keycenter=101
lokey=99
hikey=102
volume=12.859392

<group>
sw_default=48
sw_lokey=48
sw_hikey=53
sw_last=50
sw_label=HandVib
trigger=release
ampeg_attack=0.100000
ampeg_sustain=0
ampeg_decay=0.5

<region>
sample=Harmonica-Hohner-Special20-F/Releases/HandVib/Hohner-Special20-F_HandVib_rel_F3.wav
pitch_keycenter=65
lokey=65
hikey=67
tune=-5
volume=1.906180

<region>
sample=Harmonica-Hohner-Special20-F/Releases/HandVib/Hohner-Special20-F_HandVib_rel_A3.wav
pitch_keycenter=69
lokey=68
hikey=70
tune=-3
volume=-1.586904

<region>
sample=Harmonica-Hohner-Special20-F/Releases/HandVib/Hohner-Special20-F_HandVib_rel_C4.wav
pitch_keycenter=72
lokey=71
hikey=74
tune=-3
volume=-1.207789

<region>
sample=Harmonica-Hohner-Special20-F/Releases/HandVib/Hohner-Special20-F_HandVib_rel_F4.wav
pitch_keycenter=77
lokey=75
hikey=79
tune=-4
volume=0.620358

<region>
sample=Harmonica-Hohner-Special20-F/Releases/HandVib/Hohner-Special20-F_HandVib_rel_A4.wav
pitch_keycenter=81
lokey=80
hikey=82
tune=-1
volume=1.466778

<region>
sample=Harmonica-Hohner-Special20-F/Releases/HandVib/Hohner-Special20-F_HandVib_rel_C5.wav
pitch_keycenter=84
lokey=83
hikey=86
tune=-7
volume=-1.970316

<region>
sample=Harmonica-Hohner-Special20-F/Releases/HandVib/Hohner-Special20-F_HandVib_rel_F5.wav
pitch_keycenter=89
lokey=87
hikey=91
tune=-4
volume=1.675161

<region>
sample=Harmonica-Hohner-Special20-F/Releases/HandVib/Hohner-Special20-F_HandVib_rel_A5.wav
pitch_keycenter=93
lokey=92
hikey=94
volume=-0.005698

<region>
sample=Harmonica-Hohner-Special20-F/Releases/HandVib/Hohner-Special20-F_HandVib_rel_C6.wav
pitch_keycenter=96
lokey=95
hikey=98
tune=-5
volume=2.884642

<region>
sample=Harmonica-Hohner-Special20-F/Releases/HandVib/Hohner-Special20-F_HandVib_rel_F6.wav
pitch_keycenter=101
lokey=99
hikey=102
tune=-4
volume=-1.529193



// Generation Options: --volume 0 --articulation Stac

<group>
sw_default=48
sw_lokey=48
sw_hikey=53
sw_last=51
sw_label=Stac
ampeg_attack=0.004000
ampeg_release=0.300000

<region>
seq_length=2
seq_position=1
sample=Harmonica-Hohner-Special20-F/Sustains/Stac/Hohner-Special20-F_Stac_F3_rr1.wav
pitch_keycenter=65
lokey=65
hikey=67
tune=27
volume=-2.923059

<region>
seq_length=2
seq_position=2
sample=Harmonica-Hohner-Special20-F/Sustains/Stac/Hohner-Special20-F_Stac_F3_rr2.wav
pitch_keycenter=65
lokey=65
hikey=67
tune=31
volume=-2.167214

<region>
seq_length=2
seq_position=1
sample=Harmonica-Hohner-Special20-F/Sustains/Stac/Hohner-Special20-F_Stac_A3_rr1.wav
pitch_keycenter=69
lokey=68
hikey=70
tune=16
volume=2.262859

<region>
seq_length=2
seq_position=2
sample=Harmonica-Hohner-Special20-F/Sustains/Stac/Hohner-Special20-F_Stac_A3_rr2.wav
pitch_keycenter=69
lokey=68
hikey=70
tune=12
volume=1.328793

<region>
seq_length=2
seq_position=1
sample=Harmonica-Hohner-Special20-F/Sustains/Stac/Hohner-Special20-F_Stac_C4_rr1.wav
pitch_keycenter=72
lokey=71
hikey=74
tune=12
volume=6.632705

<region>
seq_length=2
seq_position=2
sample=Harmonica-Hohner-Special20-F/Sustains/Stac/Hohner-Special20-F_Stac_C4_rr2.wav
pitch_keycenter=72
lokey=71
hikey=74
tune=13
volume=1.788988

<region>
seq_length=2
seq_position=1
sample=Harmonica-Hohner-Special20-F/Sustains/Stac/Hohner-Special20-F_Stac_F4_rr1.wav
pitch_keycenter=77
lokey=75
hikey=79
tune=9
volume=1.755080

<region>
seq_length=2
seq_position=2
sample=Harmonica-Hohner-Special20-F/Sustains/Stac/Hohner-Special20-F_Stac_F4_rr2.wav
pitch_keycenter=77
lokey=75
hikey=79
tune=6
volume=-1.952939

<region>
seq_length=2
seq_position=1
sample=Harmonica-Hohner-Special20-F/Sustains/Stac/Hohner-Special20-F_Stac_A4_rr1.wav
pitch_keycenter=81
lokey=80
hikey=82
tune=3
volume=1.972835

<region>
seq_length=2
seq_position=2
sample=Harmonica-Hohner-Special20-F/Sustains/Stac/Hohner-Special20-F_Stac_A4_rr2.wav
pitch_keycenter=81
lokey=80
hikey=82
tune=2
volume=-3.788678

<region>
seq_length=2
seq_position=1
sample=Harmonica-Hohner-Special20-F/Sustains/Stac/Hohner-Special20-F_Stac_C5_rr1.wav
pitch_keycenter=84
lokey=83
hikey=86
tune=11
volume=5.889447

<region>
seq_length=2
seq_position=2
sample=Harmonica-Hohner-Special20-F/Sustains/Stac/Hohner-Special20-F_Stac_C5_rr2.wav
pitch_keycenter=84
lokey=83
hikey=86
tune=8
volume=3.307069

<region>
seq_length=2
seq_position=1
sample=Harmonica-Hohner-Special20-F/Sustains/Stac/Hohner-Special20-F_Stac_F5_rr1.wav
pitch_keycenter=89
lokey=87
hikey=91
tune=-1
volume=-2.362050

<region>
seq_length=2
seq_position=2
sample=Harmonica-Hohner-Special20-F/Sustains/Stac/Hohner-Special20-F_Stac_F5_rr2.wav
pitch_keycenter=89
lokey=87
hikey=91
volume=0.129213

<region>
seq_length=2
seq_position=1
sample=Harmonica-Hohner-Special20-F/Sustains/Stac/Hohner-Special20-F_Stac_A5_rr1.wav
pitch_keycenter=93
lokey=92
hikey=94
tune=2
volume=0.639743

<region>
seq_length=2
seq_position=2
sample=Harmonica-Hohner-Special20-F/Sustains/Stac/Hohner-Special20-F_Stac_A5_rr2.wav
pitch_keycenter=93
lokey=92
hikey=94
volume=-2.301942

<region>
seq_length=2
seq_position=1
sample=Harmonica-Hohner-Special20-F/Sustains/Stac/Hohner-Special20-F_Stac_C6_rr1.wav
pitch_keycenter=96
lokey=95
hikey=98
tune=1
volume=5.399755

<region>
seq_length=2
seq_position=2
sample=Harmonica-Hohner-Special20-F/Sustains/Stac/Hohner-Special20-F_Stac_C6_rr2.wav
pitch_keycenter=96
lokey=95
hikey=98
tune=-1
volume=-1.619612

<region>
seq_length=2
seq_position=1
sample=Harmonica-Hohner-Special20-F/Sustains/Stac/Hohner-Special20-F_Stac_F6_rr1.wav
pitch_keycenter=101
lokey=99
hikey=102
volume=-4.510287

<region>
seq_length=2
seq_position=2
sample=Harmonica-Hohner-Special20-F/Sustains/Stac/Hohner-Special20-F_Stac_F6_rr2.wav
pitch_keycenter=101
lokey=99
hikey=102
volume=1.549506



// Generation Options: --volume 5 --attack 0.1 --articulation Accented

<group>
sw_default=48
sw_lokey=48
sw_hikey=53
sw_last=52
sw_label=Accented
trigger=attack
ampeg_attack=0.100000
ampeg_release=0.100000

<region>
sample=Harmonica-Hohner-Special20-F/Sustains/Accented/Hohner-Special20-F_Accented_F3.wav
pitch_keycenter=65
lokey=65
hikey=67
volume=4.583360

<region>
sample=Harmonica-Hohner-Special20-F/Sustains/Accented/Hohner-Special20-F_Accented_A3.wav
pitch_keycenter=69
lokey=68
hikey=70
volume=5.015732

<region>
sample=Harmonica-Hohner-Special20-F/Sustains/Accented/Hohner-Special20-F_Accented_C4.wav
pitch_keycenter=72
lokey=71
hikey=74
volume=6.354124

<region>
sample=Harmonica-Hohner-Special20-F/Sustains/Accented/Hohner-Special20-F_Accented_F4.wav
pitch_keycenter=77
lokey=75
hikey=79
volume=4.159331

<region>
sample=Harmonica-Hohner-Special20-F/Sustains/Accented/Hohner-Special20-F_Accented_A4.wav
pitch_keycenter=81
lokey=80
hikey=82
volume=6.674940

<region>
sample=Harmonica-Hohner-Special20-F/Sustains/Accented/Hohner-Special20-F_Accented_C5.wav
pitch_keycenter=84
lokey=83
hikey=86
tune=-1
volume=8.024193

<region>
sample=Harmonica-Hohner-Special20-F/Sustains/Accented/Hohner-Special20-F_Accented_F5.wav
pitch_keycenter=89
lokey=87
hikey=91
volume=2.803541

<region>
sample=Harmonica-Hohner-Special20-F/Sustains/Accented/Hohner-Special20-F_Accented_A5.wav
pitch_keycenter=93
lokey=92
hikey=94
volume=12.704512

<region>
sample=Harmonica-Hohner-Special20-F/Sustains/Accented/Hohner-Special20-F_Accented_C6.wav
pitch_keycenter=96
lokey=95
hikey=98
tune=-2
volume=3.763967

<region>
sample=Harmonica-Hohner-Special20-F/Sustains/Accented/Hohner-Special20-F_Accented_F6.wav
pitch_keycenter=101
lokey=99
hikey=102
volume=0.808872

<group>
sw_default=48
sw_lokey=48
sw_hikey=53
sw_last=52
sw_label=Accented
trigger=release
ampeg_attack=0.100000

<region>
sample=Harmonica-Hohner-Special20-F/Releases/Accented/Hohner-Special20-F_Accented_rel_F3.wav
pitch_keycenter=65
lokey=65
hikey=67
tune=-7
volume=-0.847567

<region>
sample=Harmonica-Hohner-Special20-F/Releases/Accented/Hohner-Special20-F_Accented_rel_A3.wav
pitch_keycenter=69
lokey=68
hikey=70
tune=-4
volume=3.631365

<region>
sample=Harmonica-Hohner-Special20-F/Releases/Accented/Hohner-Special20-F_Accented_rel_C4.wav
pitch_keycenter=72
lokey=71
hikey=74
tune=-3
volume=1.912501

<region>
sample=Harmonica-Hohner-Special20-F/Releases/Accented/Hohner-Special20-F_Accented_rel_F4.wav
pitch_keycenter=77
lokey=75
hikey=79
tune=-3
volume=1.766828

<region>
sample=Harmonica-Hohner-Special20-F/Releases/Accented/Hohner-Special20-F_Accented_rel_A4.wav
pitch_keycenter=81
lokey=80
hikey=82
volume=-1.080255

<region>
sample=Harmonica-Hohner-Special20-F/Releases/Accented/Hohner-Special20-F_Accented_rel_C5.wav
pitch_keycenter=84
lokey=83
hikey=86
tune=-3
volume=-0.348880

<region>
sample=Harmonica-Hohner-Special20-F/Releases/Accented/Hohner-Special20-F_Accented_rel_F5.wav
pitch_keycenter=89
lokey=87
hikey=91
tune=8
volume=-2.820446

<region>
sample=Harmonica-Hohner-Special20-F/Releases/Accented/Hohner-Special20-F_Accented_rel_A5.wav
pitch_keycenter=93
lokey=92
hikey=94
volume=0.366644

<region>
sample=Harmonica-Hohner-Special20-F/Releases/Accented/Hohner-Special20-F_Accented_rel_C6.wav
pitch_keycenter=96
lokey=95
hikey=98
tune=-1
volume=-0.061917

<region>
sample=Harmonica-Hohner-Special20-F/Releases/Accented/Hohner-Special20-F_Accented_rel_F6.wav
pitch_keycenter=101
lokey=99
hikey=102
volume=6.218606



